HIERARCHY
ROOT Hips
{
    OFFSET 0.0 0.0 -0.0
    CHANNELS 6 Xposition Yposition Zposition Zrotation Xrotation Yrotation
    JOINT RightUpLeg
    {
        OFFSET -11.822981533748464 -11.822981533748464 0.0
        CHANNELS 3 Zrotation Xrotation Yrotation
        JOINT RightLeg
        {
            OFFSET 0.0 -48.40704761483516 0.0
            CHANNELS 3 Zrotation Xrotation Yrotation
            JOINT RightFoot
            {
                OFFSET 0.0 -33.34787410211587 0.0
                CHANNELS 3 Zrotation Xrotation Yrotation
                JOINT RightToe
                {
                    OFFSET 0.0 -8.919724254951085 0.0
                    CHANNELS 3 Zrotation Xrotation Yrotation
                    End Site
                    {
                        OFFSET 0.0 0.0 8.919724254951085
                    }
                }
            }
        }
    }
    JOINT LeftUpLeg
    {
        OFFSET 11.822981533748464 -11.822981533748464 0.0
        CHANNELS 3 Zrotation Xrotation Yrotation
        JOINT LeftLeg
        {
            OFFSET 0.0 -48.40704761483516 0.0
            CHANNELS 3 Zrotation Xrotation Yrotation
            JOINT LeftFoot
            {
                OFFSET 0.0 -33.34787410211587 0.0
                CHANNELS 3 Zrotation Xrotation Yrotation
                JOINT LeftToe
                {
                    OFFSET 0.0 -8.919724254951085 0.0
                    CHANNELS 3 Zrotation Xrotation Yrotation
                    End Site
                    {
                        OFFSET 0.0 0.0 8.919724254951085
                    }
                }
            }
        }
    }
    JOINT Spine
    {
        OFFSET 0.0 14.944183379460693 0.0
        CHANNELS 3 Zrotation Xrotation Yrotation
        JOINT Spine3
        {
            OFFSET 0.0 14.944183379460693 0.0
            CHANNELS 3 Zrotation Xrotation Yrotation
            JOINT Neck
            {
                OFFSET 0.0 9.864380818348243 0.0
                CHANNELS 3 Zrotation Xrotation Yrotation
                JOINT Head
                {
                    OFFSET 0.0 16.1023957757701 0.0
                    CHANNELS 3 Zrotation Xrotation Yrotation
                    End Site
                    {
                        OFFSET 0.0 6.440958310308039 0.0
                    }
                }
            }
            JOINT LeftArm
            {
                OFFSET 14.696279713160402 0.0 0.0
                CHANNELS 3 Zrotation Xrotation Yrotation
                JOINT LeftForeArm
                {
                    OFFSET 25.806183324291887 0.0 0.0
                    CHANNELS 3 Zrotation Xrotation Yrotation
                    JOINT LeftHand
                    {
                        OFFSET 25.179201808370976 0.0 0.0
                        CHANNELS 3 Zrotation Xrotation Yrotation
                        End Site
                        {
                            OFFSET 6.7278750993599825 0.0 0.0
                        }
                    }
                }
            }
            JOINT RightArm
            {
                OFFSET -14.696279713160402 0.0 0.0
                CHANNELS 3 Zrotation Xrotation Yrotation
                JOINT RightForeArm
                {
                    OFFSET -25.806183324291887 0.0 0.0
                    CHANNELS 3 Zrotation Xrotation Yrotation
                    JOINT RightHand
                    {
                        OFFSET -25.179201808370976 0.0 0.0
                        CHANNELS 3 Zrotation Xrotation Yrotation
                        End Site
                        {
                            OFFSET -6.7278750993599825 0.0 0.0
                        }
                    }
                }
            }
        }
    }
}
MOTION
Frames: 4
Frame Time: 0.04
-2.057604433503002e-05 17.47786999082153 1.9630316858449266 1.1101752902764896 -1.2812357295051902 177.33421658909415 -1.7837838253787381 -7.440311125373091 -36.06751418917239 -2.5779040485059888 11.059259267758112 103.20887478528769 -27.73410752408885 -26.521172335148655 -139.65933307423614 14.522327017119533 0.7705162821531761 -15.463421974435919 3.8405042181928377 -6.2795648720240935 37.59498125996359 2.3818538207889675 11.301964295528055 -15.898284641988756 1.987846675914698e-16 -1.1853752265271422e-33 -6.833222948456774e-16 1.987846675914698e-16 -1.1853752265271422e-33 -6.833222948456774e-16 7.454425034680117e-17 7.951386703658792e-16 -6.677922426900938e-16 1.8634730905305254e-17 2.2278425050172402e-19 1.3699139811273768 -0.4388626751329623 -3.7408651420010526 -178.7131325867881 5.491530249831042e-16 5.463956740754513 177.72017127981456 124.75367564084436 -4.593973778103554 177.19148663815704 2.2166580747207676e-14 1.251776101052105e-14 62.48780349331287 0.10288946721631366 0.07193397593075165 -16.864426190220282 -125.23828648080688 43.45143190958565 173.83135208590576 -7.106423677783502e-15 -1.055242113546981e-14 -67.91581170048138 -37.313063929333026 23.55373490358155 -2.448362209111787
-2.9735034331679344e-05 17.74502772659506 0.8172080255244509 1.4271676501993407 -2.2639116022695522 172.42632719343095 0.8975913930029338 -6.638918652619683 -28.296906865142056 -0.5768129751536915 9.017458802169983 93.6752452106616 -29.016850236279854 -25.670976927149436 -142.01100320582367 14.85461592966564 1.0036630049380246 -16.847116314544884 6.987121021989095 -9.998107342843408 48.06964776302876 14.161820230091074 15.255963086188254 -36.26045029444074 -1.987846675914698e-16 -6.896728590703373e-34 3.975693351829396e-16 -1.987846675914698e-16 -6.896728590703373e-34 3.975693351829396e-16 4.721135855297407e-16 -3.975693351829396e-16 7.827146286414123e-16 1.9754664611080501e-16 -3.9818594018075033e-16 -0.35655860918236437 -4.871850515061725 -4.975299040472277 -172.29408412703472 1.6450038409023127e-15 4.481911580815355 172.04501626847434 119.12769696203458 -12.50444889965928 172.88604632478146 -1.5699308736799582e-14 2.5357261743208044e-15 55.38963653531662 -12.742406608398358 -11.087900687162328 -6.785058549171723 -121.94828284940905 53.72948768204658 169.23351149579494 1.129152727196054e-14 1.538423942905964e-14 -72.5548960909667 -79.35324391596087 31.11285833291592 12.063046110325423
-3.6076613469049335e-05 16.62976248765094 0.5692824783208832 0.5817581207446112 -3.0176007519676586 173.7840658221699 -0.2887827940634294 -6.011721512863235 -24.633575891929144 0.7369644679703732 9.12187412766673 85.36131431590594 -26.211223580124216 -25.93365997527676 -138.38425844910424 13.955120248848077 1.1643091189409425 -16.869394402447575 4.955303240373543 -9.828697549052812 44.055388902922815 11.067784087470319 12.338315916931219 -28.98028727726227 -9.93923337957349e-17 4.310455369189608e-34 -4.969616689786745e-16 -9.93923337957349e-17 4.310455369189608e-34 -4.969616689786745e-16 2.7332891793827095e-16 -7.951386703658792e-16 -3.0438902224943813e-16 1.4580046830318274e-16 3.987868863935265e-16 0.9462564779923495 -6.4552343923947735 -3.882093284839192 -175.11147794106103 1.4971860494125685e-15 0.6248123842959608 173.81436104122574 127.45384974793251 -11.453778931552906 171.2650536127161 -8.30205136778635e-15 3.4645876725625955e-15 44.69678022688761 -20.574642778283305 -23.79101268699831 -4.7649016308175085 -133.314494713877 58.54316395770329 171.47649967865306 -4.37983052575744e-15 -4.613111411266942e-15 -87.02811083200562 -89.24292737687087 17.19896005552636 -18.119056519571195
-4.587631701724604e-05 14.660147137580118 0.8919951673500863 -1.1174134825288908 -3.207322447216517 171.14077581635652 -1.197885972722428 -8.643395713871222 -23.443931950161776 -1.5269466138286025 13.927024040006602 96.3198936876492 -30.28664897983712 -19.730639212197143 -149.9703678899122 12.773266819117449 1.4730153941181587 -17.27395797168516 2.9098174346055954 -13.301386465212278 48.48451431132364 17.611229906162983 15.435824624422292 -45.34464733295662 -2.4848083448933725e-16 0.0 0.0 -2.4848083448933725e-16 0.0 0.0 0.0 0.0 1.997164707208048e-15 3.154632118356551e-16 -3.839972166727284e-16 5.068105582957633 -10.89518684512959 -2.4461179139440605 3.1108176428782004 -2.3891253424816833e-15 3.1931710692397552 -8.109809059329521 148.03377344959839 2.487901564421638 164.0583544872139 1.1161259113952552e-14 6.8845531722445456e-15 35.262230061008076 -11.775501572964435 -19.855536192132046 1.0248222102741822 -135.21800969175453 67.89704828747173 169.18879654064773 4.714122422014121e-15 4.27092052342135e-15 -95.64783790911073 -62.259086040177806 12.89564366199252 -31.149243279535096
